<svg width="66" height="50" viewBox="0 0 66 50" fill="none" xmlns="http://www.w3.org/2000/svg">
<path d="M33.0088 2.00196C38.5001 2.00325 43.8881 3.13291 48.599 5.27061C53.3099 7.40832 57.1671 10.474 59.76 14.1411C62.3529 17.8083 63.5842 21.9396 63.3228 26.0949C63.0615 30.2503 61.3173 34.2742 58.2759 37.7379L63.3667 47.9989L46.3196 45.6636C42.2147 47.1832 37.71 47.9814 33.1412 47.9986C28.5725 48.0157 24.0575 47.2514 19.933 45.7625C15.8085 44.2739 12.1804 42.0989 9.32022 39.4C6.45959 36.7014 4.43951 33.5482 3.4118 30.1758C2.38362 26.8033 2.37324 23.2986 3.3821 19.9228C4.39096 16.547 6.39217 13.3872 9.23725 10.679C12.0823 7.97071 15.6977 5.78393 19.8136 4.28154C23.9295 2.77913 28.44 1.99991 33.0088 2.00196Z" stroke="black" stroke-linecap="round" stroke-linejoin="round"/>
<path d="M48.5576 28.5714C46.2005 35 36.7719 38.9286 28.2862 37.1429C23.1005 35.7143 18.8576 32.5 17.4431 28.5714" stroke="black" stroke-linecap="round" stroke-linejoin="round"/>
<path d="M43.6071 19.6429C44.258 19.6429 44.7856 19.2431 44.7856 18.75C44.7856 18.2569 44.258 17.8571 43.6071 17.8571" stroke="black" stroke-linecap="round" stroke-linejoin="round"/>
<path d="M43.6069 19.6429C42.956 19.6429 42.4284 19.2431 42.4284 18.75C42.4284 18.2569 42.956 17.8571 43.6069 17.8571" stroke="black" stroke-linecap="round" stroke-linejoin="round"/>
<path d="M22.3927 19.6429C23.0436 19.6429 23.5713 19.2431 23.5713 18.75C23.5713 18.2569 23.0436 17.8571 22.3927 17.8571" stroke="black" stroke-linecap="round" stroke-linejoin="round"/>
<path d="M22.3926 19.6429C21.7417 19.6429 21.214 19.2431 21.214 18.75C21.214 18.2569 21.7417 17.8571 22.3926 17.8571" stroke="black" stroke-linecap="round" stroke-linejoin="round"/>
</svg>
