<svg width="71" height="40" viewBox="0 0 71 40" fill="none" xmlns="http://www.w3.org/2000/svg">
<path d="M35.5835 1V3.92308" stroke="black" stroke-linecap="round" stroke-linejoin="round"/>
<path d="M51.5449 3.92309L54.2052 2.46155" stroke="black" stroke-linecap="round" stroke-linejoin="round"/>
<path d="M19.6221 3.92309L16.9619 2.46155" stroke="black" stroke-linecap="round" stroke-linejoin="round"/>
<path d="M70.1665 39H57.6789C46.6716 39 37.4807 34.3889 36.4842 28.3663L35.8718 24.6651C35.6958 23.6015 36.6523 22.5777 38.3277 22.0362C41.3653 21.0546 45.2506 22.0516 45.83 23.9614L47.2885 28.7693" stroke="black" stroke-linecap="round" stroke-linejoin="round"/>
<path d="M70.1668 28.7593H61.5237C58.8571 28.7593 56.6023 27.6747 56.2501 26.2225L52.9051 12.4388C52.2965 9.93064 46.9994 8.70929 43.315 10.2275C41.7974 10.8528 40.9043 11.8342 40.9043 12.8764V21.4516" stroke="black" stroke-linecap="round" stroke-linejoin="round"/>
<path d="M1 39H13.4879C24.4949 39 33.6858 34.3889 34.6823 28.3663L35.2948 24.6651C35.4708 23.6015 34.5142 22.5777 32.8388 22.0362C29.8012 21.0546 25.9158 22.0516 25.3365 23.9614L23.878 28.7693" stroke="black" stroke-linecap="round" stroke-linejoin="round"/>
<path d="M1 28.7578H9.643C12.3096 28.7578 14.5644 27.6733 14.9168 26.2211L18.2619 12.4373C18.8706 9.92921 24.1674 8.70786 27.8519 10.226C29.3694 10.8514 30.2626 11.8327 30.2626 12.8749V21.4501" stroke="black" stroke-linecap="round" stroke-linejoin="round"/>
</svg>
