<svg width="51" height="52" viewBox="0 0 51 52" fill="none" xmlns="http://www.w3.org/2000/svg">
<path d="M25.4999 50.1429C38.5772 50.1429 49.1784 39.3337 49.1784 26C49.1784 12.6663 38.5772 1.85715 25.4999 1.85715C12.4225 1.85715 1.82129 12.6663 1.82129 26C1.82129 39.3337 12.4225 50.1429 25.4999 50.1429Z" stroke="black" stroke-linecap="round" stroke-linejoin="round"/>
<path d="M25.4998 42.7143C34.5533 42.7143 41.8926 35.231 41.8926 26C41.8926 16.7689 34.5533 9.28571 25.4998 9.28571C16.4463 9.28571 9.10693 16.7689 9.10693 26C9.10693 35.231 16.4463 42.7143 25.4998 42.7143Z" stroke="black" stroke-linecap="round" stroke-linejoin="round"/>
<path d="M9.50537 22.2857H41.4905" stroke="black" stroke-linecap="round" stroke-linejoin="round"/>
<path d="M25.4997 33.4286L16.3926 22.2857H34.6069L25.4997 33.4286Z" stroke="black" stroke-linecap="round" stroke-linejoin="round"/>
<path d="M25.5 33.4286V42.7143" stroke="black" stroke-linecap="round" stroke-linejoin="round"/>
</svg>
