<svg width="77" height="50" viewBox="0 0 77 50" fill="none" xmlns="http://www.w3.org/2000/svg">
<path d="M38.461 17.0635H14.8501C14.1208 17.0635 13.4213 16.8753 12.9055 16.5404L4.65555 11.1833C3.58161 10.4859 3.58161 9.35531 4.65555 8.65795L12.9055 3.30079C13.4213 2.96591 14.1208 2.77777 14.8501 2.77777H38.461" stroke="black" stroke-linecap="round" stroke-linejoin="round"/>
<path d="M38.4609 27.7778H62.0719C62.8012 27.7778 63.5008 27.5896 64.0161 27.2547L72.2661 21.8976C73.3403 21.2002 73.3403 20.0696 72.2661 19.3722L64.0161 14.0151C63.5008 13.6802 62.8012 13.4921 62.0719 13.4921H38.4609" stroke="black" stroke-linecap="round" stroke-linejoin="round"/>
<path d="M38.461 38.492H14.8501C14.1208 38.492 13.4213 38.3038 12.9055 37.9692L4.65555 32.6119C3.58161 31.9145 3.58161 30.7839 4.65555 30.0865L12.9055 24.7294C13.4213 24.3945 14.1208 24.2063 14.8501 24.2063H38.461" stroke="black" stroke-linecap="round" stroke-linejoin="round"/>
<path d="M38.4609 2.77777V49.2063" stroke="black" stroke-linecap="round" stroke-linejoin="round"/>
</svg>
